HIERARCHY
ROOT Hips
{
	OFFSET 0.00000 0.00000 0.00000
	CHANNELS 6 Xposition Yposition Zposition Zrotation Yrotation Xrotation 
	JOINT LHipJoint
	{
		OFFSET 0 0 0
		CHANNELS 3 Zrotation Yrotation Xrotation
		JOINT LeftHip
		{
			OFFSET 1.37590 -1.78394 0.89329
			CHANNELS 3 Zrotation Yrotation Xrotation
			JOINT LeftKnee
			{
				OFFSET 2.47928 -6.81178 0.00000
				CHANNELS 3 Zrotation Yrotation Xrotation
				JOINT LeftAnkle
				{
					OFFSET 2.63345 -7.23535 0.00000
					CHANNELS 3 Zrotation Yrotation Xrotation
					JOINT LeftToe
					{
						OFFSET 0.23938 -0.65768 2.27012
						CHANNELS 3 Zrotation Yrotation Xrotation
						End Site
						{
							OFFSET 0.00000 -0.00000 1.18363
						}
					}
				}
			}
		}
	}
	JOINT RHipJoint
	{
		OFFSET 0 0 0
		CHANNELS 3 Zrotation Yrotation Xrotation
		JOINT RightHip
		{
			OFFSET -1.33617 -1.78394 0.89329
			CHANNELS 3 Zrotation Yrotation Xrotation
			JOINT RightKnee
			{
				OFFSET -2.56922 -7.05888 0.00000
				CHANNELS 3 Zrotation Yrotation Xrotation
				JOINT RightAnkle
				{
					OFFSET -2.56568 -7.04915 0.00000
					CHANNELS 3 Zrotation Yrotation Xrotation
					JOINT RightToe
					{
						OFFSET -0.27533 -0.75646 2.18105
						CHANNELS 3 Zrotation Yrotation Xrotation
						End Site
						{
							OFFSET -0.00000 -0.00000 1.15233
						}
					}
				}
			}
		}
	}
	JOINT lowerback
	{
		OFFSET 0 0 0
		CHANNELS 3 Zrotation Yrotation Xrotation
		JOINT Chest
		{
			OFFSET 0.06190 2.15152 -0.00935
			CHANNELS 3 Zrotation Yrotation Xrotation
			JOINT Chest2
			{
				OFFSET 0.06334 2.15332 0.00872
				CHANNELS 3 Zrotation Yrotation Xrotation
				JOINT lowerneck
				{
					OFFSET 0 0 0
					CHANNELS 3 Zrotation Yrotation Xrotation
					JOINT Neck
					{
						OFFSET -0.04202 1.66908 0.23524
						CHANNELS 3 Zrotation Yrotation Xrotation
						JOINT Head
						{
							OFFSET 0.07510 1.69357 -0.24440
							CHANNELS 3 Zrotation Yrotation Xrotation
							End Site
							{
								OFFSET 0.02556 1.71719 -0.11000
							}
						}
					}
				}
				JOINT LeftCollar
				{
					OFFSET 0 0 0
					CHANNELS 3 Zrotation Yrotation Xrotation
					JOINT LeftShoulder
					{
						OFFSET 3.67168 1.26306 -0.41342
CHANNELS 3 Zrotation Xrotation Yrotation
						JOINT LeftElbow
						{
OFFSET 0 -4.685100 -0.000000
CHANNELS 3 Zrotation Xrotation Yrotation
							JOINT LeftWrist
							{
OFFSET 0 -3.396260 -0.000000
CHANNELS 3 Zrotation Xrotation Yrotation
								JOINT lhand
								{
									OFFSET 0 0 0
CHANNELS 3 Zrotation Xrotation Yrotation
									JOINT LFingers
									{
OFFSET 0 -0.486080 -0.000000
CHANNELS 3 Zrotation Xrotation Yrotation
										End Site
										{
OFFSET 0 -0.391890 -0.000000
										}
									}
								}
								JOINT LThumb
								{
OFFSET 0 0.000000 0.000000
CHANNELS 3 Zrotation Xrotation Yrotation
									End Site
									{
OFFSET 0 -0.397870 0.397870
									}
								}
							}
						}
					}
				}
				JOINT RightCollar
				{
					OFFSET 0 0 0
					CHANNELS 3 Zrotation Yrotation Xrotation
					JOINT RightShoulder
					{
						OFFSET -3.04136 1.42992 -0.76390
CHANNELS 3 Zrotation Xrotation Yrotation
						JOINT RightElbow
						{
OFFSET 0 -5.555760 -0.000000
CHANNELS 3 Zrotation Xrotation Yrotation
							JOINT RightWrist
							{
OFFSET 0 -3.327740 -0.000000
CHANNELS 3 Zrotation Xrotation Yrotation
								JOINT rhand
								{
									OFFSET 0 0 0
CHANNELS 3 Zrotation Xrotation Yrotation
									JOINT RFingers
									{
OFFSET 0 -0.507630 -0.000000
CHANNELS 3 Zrotation Xrotation Yrotation
										End Site
										{
OFFSET 0 -0.409260 -0.000000
										}
									}
								}
								JOINT RThumb
								{
OFFSET 0 0.000000 0.000000
CHANNELS 3 Zrotation Xrotation Yrotation
									End Site
									{
OFFSET 0 -0.415510 0.415510
									}
								}
							}
						}
					}
				}
			}
		}
	}
}
MOTION
Frames: 6
Frame Time: 0.008333333333333333
32.202500 17.487800 5.612400 168.675000 -82.916600 -167.470000 0.000000 0.000000 0.000000 -24.420000 -4.187900 -11.625100 1.787200 8.408000 23.960400 0.365900 -4.852100 -10.792200 0.173000 2.679300 7.387200 0.000000 0.000000 0.000000 9.809600 8.437500 -42.927100 -16.012200 -19.614400 78.268100 -39.538400 13.922600 -165.430400 -0.944100 -6.188400 17.332000 -1.985200 -1.354400 3.443000 0.430400 -1.898500 -1.859500 1.681600 -0.890600 -3.767500 -4.885200 -2.708100 -21.770400 6.919600 -3.616600 15.189300 2.659300 -1.266400 8.523900 0.000000 0.000000 0.000000 -1.144600 -5.138200 -40.154400 45.437700 -50.981100 22.578300 11.901000 -1.623600 -8.580500 0.000000 0.000000 0.000000 -7.125000 0.000000 0.000000 -12.869200 38.442400 -2.120200 0.000000 0.000000 0.000000 -8.008900 15.156600 13.277600 -15.534900 -24.885900 -3.447900 -8.769200 16.021700 9.349400 0.000000 0.000000 0.000000 7.125000 0.000000 -0.000000 15.674300 38.967000 2.399300
32.139393 17.512257 5.616622 165.952002 -83.181985 -164.951536 0.000000 0.000000 0.000000 -24.917069 -4.301959 -10.722383 1.695123 8.198735 23.319939 0.368520 -4.610080 -10.815201 0.167978 2.640140 7.278382 0.000000 0.000000 0.000000 9.186608 8.548065 -45.514713 -15.368609 -19.473701 76.342057 -39.493854 13.794639 -165.079708 -0.994324 -6.345404 17.790200 -2.232752 -1.570508 3.796313 0.361761 -2.208650 -1.770990 1.779500 -1.038287 -3.855865 -4.812922 -2.608817 -21.958630 6.889903 -3.496864 15.312603 2.655006 -1.204093 8.588463 0.000000 0.000000 0.000000 -0.881763 -6.363804 -40.468844 45.899831 -51.200992 22.938091 11.503869 -1.564933 -8.134965 0.000000 0.000000 0.000000 -7.125000 0.000000 0.000000 -13.110565 37.972626 -2.317310 0.000000 0.000000 0.000000 -8.158334 15.616620 13.088934 -15.373165 -24.663169 -3.380207 -8.513569 15.860475 9.343067 0.000000 0.000000 0.000000 7.125000 0.000000 0.000000 15.887132 38.941306 2.444283
32.075648 17.535164 5.617061 162.701689 -83.508943 -161.923533 0.000000 0.000000 0.000000 -25.406846 -4.401752 -9.826184 1.610658 8.001866 22.720404 0.368406 -4.489657 -10.806208 0.164687 2.614334 7.206754 0.000000 0.000000 0.000000 8.573460 8.586119 -48.056977 -14.774695 -19.328353 74.554246 -39.456873 13.828244 -164.734165 -1.097370 -6.650529 18.686340 -2.530893 -1.819430 4.037782 0.295082 -2.562142 -1.592376 1.905566 -1.209947 -3.781158 -4.721456 -2.503336 -22.191797 6.853414 -3.368514 15.383493 2.646062 -1.136865 8.641996 0.000000 0.000000 0.000000 -0.583695 -7.700978 -40.752843 46.345919 -51.410220 23.286306 11.237449 -1.440591 -7.926561 0.000000 0.000000 0.000000 -7.125000 0.000000 0.000000 -13.290630 37.747641 -2.424589 0.000000 0.000000 0.000000 -8.293046 15.965617 12.934677 -15.263022 -24.511171 -3.334300 -8.189756 15.755080 9.225621 0.000000 0.000000 0.000000 7.125000 0.000000 0.000000 16.129269 38.803039 2.541223
32.011044 17.556173 5.614011 159.378204 -83.885832 -158.841967 0.000000 0.000000 0.000000 -25.829960 -4.474775 -8.936356 1.533289 7.816898 22.159741 0.365502 -4.478085 -10.763163 0.163000 2.601073 7.170020 0.000000 0.000000 0.000000 8.021392 8.581080 -50.510867 -14.260154 -19.190017 72.996652 -39.426889 13.962852 -164.413349 -1.221249 -7.007990 19.739616 -2.841317 -2.081132 4.307305 0.261544 -2.934939 -1.419041 2.077463 -1.390080 -3.722173 -4.640754 -2.392795 -22.400652 6.801835 -3.226555 15.440113 2.635611 -1.066091 8.685639 0.000000 0.000000 0.000000 -0.291000 -8.974622 -41.026874 46.776846 -51.609389 23.623532 11.085178 -1.294868 -7.833867 0.000000 0.000000 0.000000 -7.125000 0.000000 0.000000 -13.398708 37.645655 -2.479336 0.000000 0.000000 0.000000 -8.449968 16.340494 12.829044 -15.194187 -24.415915 -3.305770 -7.873218 15.736551 9.026607 0.000000 0.000000 0.000000 7.125000 0.000000 0.000000 16.344996 38.586632 2.666888
31.945025 17.574297 5.607314 156.770938 -84.301742 -156.503289 0.000000 0.000000 0.000000 -26.068414 -4.493699 -8.053874 1.463485 7.645264 21.641854 0.359170 -4.573947 -10.675818 0.163000 2.601365 7.170894 0.000000 0.000000 0.000000 7.632922 8.576640 -52.783089 -13.892939 -19.080690 71.876737 -39.404252 14.110903 -164.156698 -1.313398 -7.258454 20.483655 -3.098622 -2.322642 4.857873 0.322759 -3.288251 -1.420788 2.335351 -1.552907 -3.998330 -4.625905 -2.278227 -22.457937 6.717546 -3.059506 15.547184 2.628914 -0.993522 8.719486 0.000000 0.000000 0.000000 -0.076566 -9.862562 -41.325232 47.191228 -51.797619 23.948676 11.039904 -1.201990 -7.664489 0.000000 0.000000 0.000000 -7.125000 0.000000 0.000000 -13.401911 37.475040 -2.537348 0.000000 0.000000 0.000000 -8.698757 16.988526 12.806625 -15.156483 -24.363653 -3.290193 -7.698891 15.876667 8.782476 0.000000 0.000000 0.000000 7.125000 0.000000 0.000000 16.430595 38.337843 2.785751
31.878431 17.592805 5.602216 153.652793 -84.689839 -153.624958 0.000000 0.000000 0.000000 -26.322085 -4.541845 -7.185651 1.394960 7.471072 21.119172 0.354564 -4.616867 -10.611874 0.162552 2.597755 7.160770 0.000000 0.000000 0.000000 7.207495 8.581982 -55.096425 -13.500147 -18.953395 70.670246 -39.380400 14.240539 -163.900815 -1.397236 -7.476372 21.135364 -3.323318 -2.568948 5.263618 0.356224 -3.643610 -1.357763 2.542087 -1.721041 -4.124357 -4.578958 -2.165705 -22.531589 6.641762 -2.904031 15.603999 2.617742 -0.923765 8.739649 0.000000 0.000000 0.000000 0.198098 -10.879534 -41.588231 47.626774 -51.991539 24.291531 10.938362 -1.127591 -7.521903 0.000000 0.000000 0.000000 -7.125000 0.000000 0.000000 -13.457544 37.327443 -2.598301 0.000000 0.000000 0.000000 -8.924145 17.531695 12.794181 -15.115326 -24.306532 -3.273274 -7.489141 15.916207 8.580610 0.000000 0.000000 0.000000 7.125000 0.000000 0.000000 16.555772 38.127865 2.897197
